# xmcd
#
# Track frame offsets: 
#        150
#        12738
#        25551
#        37093
#        50185
#        63940
#        77752
#        91152
#        103599
#        117132
#        129442
#        143077
#        155790
#        168203
#        180535
#        193503
#        207300
#        221332
#        232975
#        244609
#        258216
#        272052
#        285348
#        298399
#        310568
#
# Disc length: 4310 seconds
#
# Revision: 0
# Processed by: cddbd v1.5.2PL0 Copyright (c) Steve Scherf et al.
# Submitted via: ExactAudioCopy v0.99pb5
#
DISCID=5e10d419
DTITLE=Various Artist - A Cowboy's Life Is Good Enough For Me [CD3)
DYEAR=2004
DGENRE=Country
TTITLE0=Donn Reynolds/The Stockman's Lullaby
TTITLE1=Big Bill Campbell And His Hilly Billy Band/The Strawberry Roan
TTITLE2=Rosalie Allen/Cowpuncher's Waltz
TTITLE3=Smoky Dawson and His Rocky Canyon Boys/Cowboy's Roundup Song
TTITLE4=The Hillbillies/Moonlight On The Prairie
TTITLE5=Frank Ifield/There's A Love Knot In My Lariat
TTITLE6=Jimmy Wakely/Ale Moon
TTITLE7=Elton Britt/Ridin' With My Gal
TTITLE8=Wilf Carter (Montana Slim)/Broken Down Cowboy
TTITLE9=Ezra Paulette and His Beverly Hillbillies/Old Arapahoe Trail
TTITLE10=Les Wilson/Prairie Rose
TTITLE11=Dick Thomas/Ridin' 'neath The Arizona Moon
TTITLE12=Rex Allen/Who Shot The Hole In My Sombrero
TTITLE13=Willie Lamothe/Je Suis Un Cowboy Canadien
TTITLE14=Tex Morton and His Roughriders/Teardrops In My Heart
TTITLE15=Frank Luther and Carson Robison (as The Black Brothers)/When Th
TTITLE15=e Bloom Is On The Sage
TTITLE16=Goebel Reeves (As The Yodelling Rustler/Cowboy's Dream
TTITLE17=Buddy Reynolds and The Rhythm Pals/Tundra
TTITLE18=Gene Autry/Rhythm Of The Range
TTITLE19=Roy Rogers/Saddle Serenade
TTITLE20=The Singing Mountaineers/Prairie Lullaby
TTITLE21=Buddy Williams(The Yodelling Jackaroo)/A Cowboy's Life Is Goo
TTITLE21=d Enough For Me
TTITLE22=Kenny Roberts/Sweet Little Cherokee
TTITLE23=Evan Kemp and The Trail Riders/Tonight In The Twilight
TTITLE24=Jesse Rogers/Back In The Saddle Again
EXTD=
EXTT0=
EXTT1=
EXTT2=
EXTT3=
EXTT4=
EXTT5=
EXTT6=
EXTT7=
EXTT8=
EXTT9=
EXTT10=
EXTT11=
EXTT12=
EXTT13=
EXTT14=
EXTT15=
EXTT16=
EXTT17=
EXTT18=
EXTT19=
EXTT20=
EXTT21=
EXTT22=
EXTT23=
EXTT24=
PLAYORDER=
